# This file uses centimeters as units for non-parametric coordinates.

mtllib node01.mtl
g default
v 0.016360 -0.050350 -0.959556
v -0.042831 -0.031118 -0.959556
v -0.042831 0.031118 -0.959556
v 0.016360 0.050350 -0.959556
v 0.052942 -0.000000 -0.959556
v -0.272531 0.838765 -0.381774
v -0.219590 0.838765 -0.414494
v -0.229701 0.807647 -0.467436
v -0.288891 0.788414 -0.467436
v -0.315362 0.807647 -0.414494
v 0.729856 0.468035 -0.414494
v 0.697136 0.468035 -0.467435
v 0.660554 0.518385 -0.467435
v 0.670665 0.549503 -0.414494
v 0.713496 0.518385 -0.381774
v -0.881930 -0.000000 -0.381774
v -0.865570 0.050350 -0.414494
v -0.839099 0.031118 -0.467436
v -0.839099 -0.031118 -0.467436
v -0.865570 -0.050350 -0.414494
v -0.272531 -0.838765 -0.381774
v -0.315362 -0.807646 -0.414494
v -0.288891 -0.788414 -0.467435
v -0.229701 -0.807646 -0.467435
v -0.219590 -0.838765 -0.414494
v 0.713496 -0.518385 -0.381774
v 0.670665 -0.549503 -0.414494
v 0.660554 -0.518385 -0.467435
v 0.697136 -0.468035 -0.467435
v 0.729856 -0.468035 -0.414494
v 0.288891 0.788414 0.467435
v 0.315362 0.807646 0.414494
v 0.272531 0.838765 0.381774
v 0.219590 0.838765 0.414494
v 0.229701 0.807646 0.467435
v -0.660554 0.518385 0.467436
v -0.670665 0.549503 0.414494
v -0.713496 0.518385 0.381774
v -0.729856 0.468035 0.414494
v -0.697136 0.468035 0.467436
v -0.697136 -0.468035 0.467435
v -0.729856 -0.468035 0.414494
v -0.713496 -0.518385 0.381774
v -0.670665 -0.549503 0.414494
v -0.660554 -0.518385 0.467435
v 0.229701 -0.807646 0.467435
v 0.219590 -0.838765 0.414494
v 0.272531 -0.838765 0.381774
v 0.315362 -0.807646 0.414494
v 0.288891 -0.788414 0.467435
v 0.839099 -0.031118 0.467436
v 0.865570 -0.050350 0.414494
v 0.881930 -0.000000 0.381774
v 0.865570 0.050350 0.414494
v 0.839099 0.031118 0.467436
v 0.042831 -0.031118 0.959556
v 0.042831 0.031118 0.959556
v -0.016360 0.050350 0.959556
v -0.052942 -0.000000 0.959556
v -0.016360 -0.050350 0.959556
vt 0.997301 0.481709
vt 1.009669 0.488155
vt 1.009669 0.511845
vt 0.997301 0.518291
vt 0.115540 0.818393
vt 1.054760 0.823792
vt 1.060668 0.818393
vt 0.853172 0.675161
vt 1.093980 0.802199
vt 1.088104 0.800102
vt 1.166539 0.511845
vt 1.170333 0.521593
vt 0.832182 0.656870
vt 0.844027 0.343130
vt 0.838104 0.687006
vt 0.615540 0.818393
vt 0.188053 0.500000
vt 0.323036 0.675161
vt 1.170333 0.478407
vt 1.166539 0.488155
vt 1.088104 0.199898
vt 1.093980 0.197801
vt 1.054760 0.176208
vt 0.621448 0.176208
vt 0.115540 0.181607
vt 0.323036 0.324839
vt 1.075736 0.193452
vt 0.853172 0.324839
vt 0.832182 0.343130
vt 0.688053 0.500000
vt 0.823036 0.324839
vt 0.615540 0.181607
vt 0.588104 0.800102
vt 0.678908 0.518291
vt 0.560668 0.818393
vt 0.338104 0.687006
vt 0.497301 0.518291
vt 0.332182 0.656870
vt 0.332182 0.343130
vt 0.488155 0.500000
vt 0.338104 0.312994
vt 0.560668 0.181607
vt 0.497301 0.481709
vt 0.600473 0.193452
vt 0.678908 0.481709
vt 0.666539 0.511845
vt 0.509669 0.511845
vt 0.509669 0.488155
vt 1.075736 0.806548
vt 0.988155 0.500000
vt 0.844027 0.656870
vt 0.100473 0.806548
vt 0.178908 0.518291
vt 0.178908 0.481709
vt 0.100473 0.193452
vt 1.060668 0.181607
vt 0.838104 0.312994
vt 0.823036 0.675161
vt 0.600473 0.806548
vt 0.575736 0.806548
vt 0.353172 0.675161
vt 0.344027 0.656870
vt 0.344027 0.343130
vt 0.353172 0.324839
vt 0.575736 0.193452
vt 0.588104 0.199898
vt 0.666539 0.488155
vt 1.082212 0.820314
vt 1.086028 0.816161
vt 1.174132 0.507631
vt 1.172055 0.500000
vt 1.090181 0.183839
vt 0.621448 0.823792
vt 0.599888 0.823792
vt 0.599888 0.176208
vn 0.173197 -0.533047 -0.828169
vn 0.560479 -0.000000 -0.828169
vn 0.628854 -0.049678 -0.775935
vn 0.241573 -0.582725 -0.775934
vn -0.453437 -0.329441 -0.828169
vn 0.147080 -0.613427 -0.775934
vn -0.479554 -0.409822 -0.775935
vn -0.453437 0.329441 -0.828169
vn -0.537954 -0.329441 -0.775935
vn -0.537954 0.329441 -0.775935
vn 0.173198 0.533047 -0.828169
vn -0.479554 0.409822 -0.775935
vn 0.147080 0.613427 -0.775935
vn 0.241573 0.582725 -0.775934
vn 0.628854 0.049678 -0.775935
vn -0.306357 0.942868 0.130939
vn -0.759793 0.613427 -0.215456
vn -0.802052 0.582725 -0.130939
vn -0.348615 0.912166 0.215456
vn 0.254122 0.942868 -0.215456
vn -0.254122 0.942868 0.215456
vn 0.306357 0.942868 -0.130939
vn 0.348615 0.912166 -0.215456
vn -0.818193 0.533047 -0.215456
vn 0.975249 0.049678 -0.215456
vn 0.802052 0.582725 0.130939
vn 0.818193 0.533047 0.215456
vn 0.991390 0.000000 -0.130939
vn 0.975249 -0.049678 -0.215456
vn 0.759793 0.613427 0.215456
vn -0.991390 0.000000 0.130939
vn -0.818193 -0.533047 -0.215456
vn -0.802052 -0.582725 -0.130939
vn -0.975249 -0.049678 0.215456
vn -0.975249 0.049678 0.215456
vn -0.759793 -0.613427 -0.215456
vn -0.306356 -0.942868 0.130939
vn 0.254122 -0.942868 -0.215456
vn 0.306356 -0.942868 -0.130939
vn -0.254122 -0.942868 0.215456
vn -0.348615 -0.912166 0.215456
vn 0.348615 -0.912166 -0.215456
vn 0.802052 -0.582725 0.130939
vn 0.818193 -0.533047 0.215456
vn 0.759793 -0.613427 0.215456
vn 0.479554 0.409822 0.775935
vn -0.147080 0.613427 0.775935
vn -0.173197 0.533047 0.828169
vn 0.453437 0.329441 0.828169
vn 0.537954 0.329441 0.775935
vn -0.241573 0.582725 0.775935
vn -0.628854 0.049678 0.775935
vn -0.560479 -0.000000 0.828169
vn -0.628854 -0.049678 0.775935
vn -0.241573 -0.582725 0.775935
vn -0.173197 -0.533047 0.828169
vn -0.147080 -0.613427 0.775934
vn 0.479554 -0.409822 0.775935
vn 0.453437 -0.329441 0.828169
vn 0.537954 -0.329441 0.775935
vn 0.000001 0.000000 -1.000000
vn 0.000001 0.000000 -1.000000
vn 0.000001 0.000000 -1.000000
vn 0.000001 0.000000 -1.000000
vn 0.000001 0.000000 -1.000000
vn -0.276393 0.850651 -0.447214
vn -0.276393 0.850651 -0.447214
vn -0.276393 0.850651 -0.447214
vn -0.276393 0.850651 -0.447214
vn -0.276393 0.850651 -0.447214
vn 0.723606 0.525731 -0.447214
vn 0.723606 0.525731 -0.447214
vn 0.723606 0.525731 -0.447214
vn 0.723607 0.525731 -0.447214
vn 0.723606 0.525731 -0.447214
vn -0.894427 0.000000 -0.447214
vn -0.894427 0.000000 -0.447214
vn -0.894427 0.000000 -0.447214
vn -0.894427 0.000000 -0.447214
vn -0.894427 0.000000 -0.447214
vn -0.276393 -0.850651 -0.447213
vn -0.276393 -0.850651 -0.447213
vn -0.276393 -0.850651 -0.447213
vn -0.276393 -0.850651 -0.447213
vn -0.276393 -0.850651 -0.447213
vn 0.723606 -0.525732 -0.447214
vn 0.723607 -0.525732 -0.447214
vn 0.723607 -0.525732 -0.447214
vn 0.723606 -0.525732 -0.447214
vn 0.723606 -0.525732 -0.447214
vn 0.276393 0.850651 0.447213
vn 0.276393 0.850651 0.447213
vn 0.276393 0.850651 0.447213
vn 0.276393 0.850651 0.447213
vn 0.276393 0.850651 0.447213
vn -0.723607 0.525731 0.447213
vn -0.723607 0.525731 0.447214
vn -0.723607 0.525731 0.447214
vn -0.723607 0.525731 0.447214
vn -0.723607 0.525731 0.447214
vn -0.723607 -0.525732 0.447214
vn -0.723607 -0.525732 0.447214
vn -0.723607 -0.525732 0.447214
vn -0.723607 -0.525732 0.447214
vn -0.723607 -0.525731 0.447214
vn 0.276393 -0.850651 0.447213
vn 0.276393 -0.850651 0.447213
vn 0.276393 -0.850651 0.447213
vn 0.276393 -0.850651 0.447213
vn 0.276393 -0.850651 0.447213
vn 0.894427 -0.000001 0.447214
vn 0.894427 -0.000001 0.447214
vn 0.894427 -0.000001 0.447214
vn 0.894427 -0.000001 0.447214
vn 0.894427 -0.000001 0.447214
vn 0.000000 0.000000 1.000000
vn 0.000000 0.000000 1.000000
vn 0.000000 0.000000 1.000000
vn 0.000000 0.000000 1.000000
vn 0.000000 0.000000 1.000000
s 1
g pPlatonic1
usemtl initialShadingGroup
f 1/1/1 5/50/2 29/14/3 28/28/4
f 2/2/5 1/1/1 24/27/6 23/21/7
f 3/3/8 2/2/5 19/20/9 18/11/10
f 4/4/11 3/3/8 9/10/12 8/49/13
f 5/50/2 4/4/11 13/8/14 12/51/15
f 6/5/16 10/52/17 38/18/18 37/36/19
f 7/7/20 6/6/16 34/73/21 33/16/22
f 8/49/13 7/7/20 14/15/23 13/8/14
f 10/9/17 9/10/12 18/11/10 17/12/24
f 11/13/25 15/58/26 54/34/27 53/30/28
f 12/51/15 11/13/25 30/29/29 29/14/3
f 15/58/26 14/15/23 33/16/22 32/59/30
f 16/17/31 20/54/32 43/26/33 42/39/34
f 17/53/24 16/17/31 39/38/35 38/18/18
f 20/19/32 19/20/9 23/21/7 22/22/36
f 21/23/37 25/56/38 48/32/39 47/24/40
f 22/55/36 21/25/37 44/41/41 43/26/33
f 25/56/38 24/27/6 28/28/4 27/57/42
f 26/31/43 30/29/29 53/30/28 52/45/44
f 27/57/42 26/31/43 49/44/45 48/32/39
f 31/33/46 35/60/47 58/37/48 57/47/49
f 32/59/30 31/33/46 55/46/50 54/34/27
f 35/60/47 34/35/21 37/36/19 36/61/51
f 36/61/51 40/62/52 59/40/53 58/37/48
f 40/62/52 39/38/35 42/39/34 41/63/54
f 41/63/54 45/64/55 60/43/56 59/40/53
f 45/64/55 44/41/41 47/42/40 46/65/57
f 46/65/57 50/66/58 56/48/59 60/43/56
f 50/66/58 49/44/45 52/45/44 51/67/60
f 51/67/60 55/46/50 57/47/49 56/48/59
f 4/4/11 8/49/13 13/8/14
f 3/3/8 18/11/10 9/10/12
f 2/2/5 23/21/7 19/20/9
f 1/1/1 28/28/4 24/27/6
f 5/50/2 12/51/15 29/14/3
f 14/15/23 7/7/20 33/16/22
f 10/52/17 17/53/24 38/18/18
f 20/54/32 22/55/36 43/26/33
f 25/56/38 27/57/42 48/32/39
f 30/29/29 11/13/25 53/30/28
f 15/58/26 32/59/30 54/34/27
f 6/5/16 37/36/19 34/35/21
f 16/17/31 42/39/34 39/38/35
f 21/25/37 47/42/40 44/41/41
f 26/31/43 52/45/44 49/44/45
f 55/46/50 31/33/46 57/47/49
f 35/60/47 36/61/51 58/37/48
f 40/62/52 41/63/54 59/40/53
f 45/64/55 46/65/57 60/43/56
f 50/66/58 51/67/60 56/48/59
s off
f 1/1/61 2/2/62 3/3/63 4/4/64 5/50/65
f 6/68/66 7/7/67 8/49/68 9/10/69 10/69/70
f 11/13/71 12/51/72 13/8/73 14/15/74 15/58/75
f 16/70/76 17/12/77 18/11/78 19/20/79 20/71/80
f 21/72/81 22/22/82 23/21/83 24/27/84 25/56/85
f 26/31/86 27/57/87 28/28/88 29/14/89 30/29/90
f 31/33/91 32/59/92 33/16/93 34/73/94 35/74/95
f 36/61/96 37/36/97 38/18/98 39/38/99 40/62/100
f 41/63/101 42/39/102 43/26/103 44/41/104 45/64/105
f 46/75/106 47/24/107 48/32/108 49/44/109 50/66/110
f 51/67/111 52/45/112 53/30/113 54/34/114 55/46/115
f 56/48/116 57/47/117 58/37/118 59/40/119 60/43/120
